<?xml version="1.0" encoding="UTF-8"?>
<svg id="Layer_2" data-name="Layer 2" xmlns="http://www.w3.org/2000/svg" viewBox="0 0 424.14 473.42">
  <defs>
    <style>
      .cls-1 {
        fill: #509348;
        stroke: #1c4625;
        stroke-miterlimit: 10;
        stroke-width: 30px;
      }

      .cls-2 {
        fill: #1c4625;
      }

      .cls-3 {
        fill: #0a190d;
      }
    </style>
  </defs>
  <g id="Layer_1-2" data-name="Layer 1">
    <g>
      <path class="cls-1" d="m212.07,457.2C-29.93,357.67,19.07,82.72,19.07,82.72,148.07,56.72,212.07,17.58,212.07,17.58c0,0,64,39.14,193,65.14,0,0,49,274.95-193,374.48Z"/>
      <g>
        <path class="cls-2" d="m238.77,116.91c-12.89-15.44-24.01-31.13-26.28-34.39-.22-.23-.58-.24-.8-.02-.01,0-.02.01-.02.02v108.1c0-.48.71-.48.71,0l6.93,155.14v.24c-1.55,2.54-7.29,7.49-7.29,7.49,0,0-.12-.11-.35-.3v39.26h5.13s2.39-21.23,3.34-36.19l1.08-.85c.12.12,128.29-96.02,17.55-238.49Z"/>
        <path class="cls-3" d="m204.73,345.75v.24c1.32,2.16,5.68,6.08,6.93,7.18v39.26h-4.42s-2.39-21.35-3.35-36.19l-1.07-.73s-128.17-96.14-17.45-238.61c12.9-15.44,24.02-31.13,26.29-34.39v108.1l-6.93,155.14Z"/>
      </g>
    </g>
  </g>
</svg>